<svg width="197" height="66" viewBox="0 0 197 66" fill="none" xmlns="http://www.w3.org/2000/svg">
<path d="M84.839 18.016V18.976C83.815 19.008 83.031 19.136 82.487 19.36C81.975 19.552 81.639 19.936 81.479 20.512C81.319 21.056 81.239 21.92 81.239 23.104V46.912C81.239 48.064 81.319 48.928 81.479 49.504C81.671 50.08 82.023 50.464 82.535 50.656C83.047 50.848 83.815 50.976 84.839 51.04V52C83.975 51.936 82.887 51.904 81.575 51.904C80.263 51.872 78.935 51.856 77.591 51.856C76.023 51.856 74.567 51.872 73.223 51.904C71.911 51.904 70.839 51.936 70.007 52V51.04C71.031 50.976 71.799 50.848 72.311 50.656C72.823 50.464 73.159 50.08 73.319 49.504C73.511 48.928 73.607 48.064 73.607 46.912V23.104C73.607 21.92 73.511 21.056 73.319 20.512C73.159 19.936 72.807 19.552 72.263 19.36C71.751 19.136 70.999 19.008 70.007 18.976V18.016C70.839 18.048 71.911 18.08 73.223 18.112C74.567 18.144 76.023 18.16 77.591 18.16C78.935 18.16 80.263 18.144 81.575 18.112C82.887 18.08 83.975 18.048 84.839 18.016ZM129.334 18.016V18.976C128.31 19.008 127.542 19.136 127.03 19.36C126.518 19.552 126.166 19.936 125.974 20.512C125.814 21.056 125.734 21.92 125.734 23.104V46.912C125.734 48.064 125.814 48.928 125.974 49.504C126.166 50.08 126.518 50.464 127.03 50.656C127.542 50.848 128.31 50.976 129.334 51.04V52C128.438 51.936 127.302 51.904 125.926 51.904C124.582 51.872 123.206 51.856 121.798 51.856C120.262 51.856 118.822 51.872 117.478 51.904C116.134 51.904 115.046 51.936 114.214 52V51.04C115.302 50.976 116.118 50.848 116.662 50.656C117.238 50.464 117.622 50.08 117.814 49.504C118.006 48.928 118.102 48.064 118.102 46.912V20.944H118.438L106.534 52.048H105.766L92.8059 21.136V44.128C92.8059 45.888 92.9019 47.248 93.0939 48.208C93.2859 49.136 93.7019 49.808 94.3419 50.224C95.0139 50.608 96.0539 50.88 97.4619 51.04V52C96.8539 51.936 96.0539 51.904 95.0619 51.904C94.0699 51.872 93.1419 51.856 92.2779 51.856C91.5419 51.856 90.7899 51.872 90.0219 51.904C89.2539 51.904 88.6139 51.936 88.1019 52V51.04C89.1259 50.88 89.8939 50.608 90.4059 50.224C90.9179 49.84 91.2539 49.216 91.4139 48.352C91.6059 47.456 91.7019 46.24 91.7019 44.704V23.104C91.7019 21.92 91.6059 21.056 91.4139 20.512C91.2539 19.936 90.9019 19.552 90.3579 19.36C89.8459 19.136 89.0939 19.008 88.1019 18.976V18.016C88.6139 18.048 89.2539 18.08 90.0219 18.112C90.7899 18.144 91.5419 18.16 92.2779 18.16C93.6539 18.16 94.9979 18.144 96.3099 18.112C97.6539 18.08 98.8379 18.048 99.8619 18.016L109.942 42.352L108.742 43.456L118.39 18.16C118.934 18.16 119.494 18.16 120.07 18.16C120.646 18.16 121.222 18.16 121.798 18.16C123.206 18.16 124.582 18.144 125.926 18.112C127.302 18.08 128.438 18.048 129.334 18.016ZM148.57 17.92L160.234 47.968C160.682 49.12 161.178 49.92 161.722 50.368C162.298 50.784 162.81 51.008 163.258 51.04V52C162.298 51.936 161.162 51.904 159.85 51.904C158.57 51.872 157.274 51.856 155.962 51.856C154.49 51.856 153.098 51.872 151.786 51.904C150.474 51.904 149.434 51.936 148.666 52V51.04C150.298 50.976 151.322 50.704 151.738 50.224C152.186 49.712 152.09 48.64 151.45 47.008L143.29 24.688L144.154 23.44L136.858 42.448C136.154 44.208 135.722 45.648 135.562 46.768C135.434 47.888 135.514 48.752 135.802 49.36C136.122 49.968 136.618 50.4 137.29 50.656C137.994 50.88 138.826 51.008 139.786 51.04V52C138.73 51.936 137.722 51.904 136.762 51.904C135.802 51.872 134.826 51.856 133.834 51.856C133.13 51.856 132.458 51.872 131.818 51.904C131.21 51.904 130.666 51.936 130.186 52V51.04C130.858 50.912 131.546 50.48 132.25 49.744C132.954 49.008 133.642 47.76 134.314 46L145.258 17.92C145.77 17.952 146.314 17.968 146.89 17.968C147.498 17.968 148.058 17.952 148.57 17.92ZM151.93 38.176V39.136H137.626L138.106 38.176H151.93ZM195.248 18.016V18.976C194.224 19.104 193.456 19.376 192.944 19.792C192.432 20.176 192.08 20.8 191.888 21.664C191.728 22.528 191.648 23.744 191.648 25.312V52.096C191.264 52.064 190.864 52.048 190.448 52.048C190.064 52.048 189.648 52.064 189.2 52.096L168.368 25.696V44.128C168.368 45.888 168.464 47.248 168.656 48.208C168.848 49.136 169.264 49.808 169.904 50.224C170.576 50.608 171.616 50.88 173.024 51.04V52C172.416 51.936 171.616 51.904 170.624 51.904C169.632 51.872 168.704 51.856 167.84 51.856C167.104 51.856 166.352 51.872 165.584 51.904C164.816 51.904 164.176 51.936 163.664 52V51.04C164.688 50.88 165.456 50.608 165.968 50.224C166.48 49.84 166.816 49.216 166.976 48.352C167.168 47.456 167.264 46.24 167.264 44.704V23.104C167.264 21.92 167.168 21.056 166.976 20.512C166.816 19.936 166.464 19.552 165.92 19.36C165.408 19.136 164.656 19.008 163.664 18.976V18.016C164.176 18.048 164.816 18.08 165.584 18.112C166.352 18.144 167.104 18.16 167.84 18.16C168.608 18.16 169.344 18.144 170.048 18.112C170.752 18.08 171.392 18.048 171.968 18.016L190.544 40.912V25.888C190.544 24.128 190.448 22.784 190.256 21.856C190.064 20.896 189.632 20.208 188.96 19.792C188.32 19.376 187.296 19.104 185.888 18.976V18.016C186.496 18.048 187.296 18.08 188.288 18.112C189.28 18.144 190.208 18.16 191.072 18.16C191.84 18.16 192.592 18.144 193.328 18.112C194.096 18.08 194.736 18.048 195.248 18.016Z" fill="#191825"/>
<circle cx="24.5" cy="41.5" r="22.5" stroke="#FFBF00" stroke-width="4"/>
<circle cx="38.5" cy="34.5" r="22.5" stroke="#3795BD" stroke-width="4"/>
<path d="M47 28.5C47 40.9655 37.1116 51 25 51C12.8884 51 3 40.9655 3 28.5C3 16.0345 12.8884 6 25 6C37.1116 6 47 16.0345 47 28.5Z" stroke="#4E31AA" stroke-width="4"/>
</svg>
