<svg width="130" height="100" viewBox="0 0 130 100" fill="none" xmlns="http://www.w3.org/2000/svg">
<circle cx="50" cy="50" r="47" transform="rotate(-90 50 50)" stroke="url(#paint0_linear_343_597)" stroke-width="6"/>
<path d="M83.088 38.856V61H80.176V44.488L72.816 61H70.768L63.376 44.456V61H60.464V38.856H63.6L71.792 57.16L79.984 38.856H83.088ZM101.211 56.04H91.4825L89.6905 61H86.6185L94.6825 38.824H98.0425L106.075 61H103.003L101.211 56.04ZM100.379 53.672L96.3465 42.408L92.3145 53.672H100.379ZM127.125 61H124.213L112.501 43.24V61H109.589V38.664H112.501L124.213 56.392V38.664H127.125V61Z" fill="#191825"/>
<path d="M83.088 38.856H84.088V37.856H83.088V38.856ZM83.088 61V62H84.088V61H83.088ZM80.176 61H79.176V62H80.176V61ZM80.176 44.488H81.176L79.2626 44.0809L80.176 44.488ZM72.816 61V62H73.4651L73.7294 61.4071L72.816 61ZM70.768 61L69.855 61.4079L70.1195 62H70.768V61ZM63.376 44.456L64.289 44.0481L62.376 44.456H63.376ZM63.376 61V62H64.376V61H63.376ZM60.464 61H59.464V62H60.464V61ZM60.464 38.856V37.856H59.464V38.856H60.464ZM63.6 38.856L64.5128 38.4475L64.248 37.856H63.6V38.856ZM71.792 57.16L70.8792 57.5685L71.792 59.6079L72.7048 57.5685L71.792 57.16ZM79.984 38.856V37.856H79.336L79.0712 38.4475L79.984 38.856ZM82.088 38.856V61H84.088V38.856H82.088ZM83.088 60H80.176V62H83.088V60ZM81.176 61V44.488H79.176V61H81.176ZM79.2626 44.0809L71.9026 60.5929L73.7294 61.4071L81.0894 44.8951L79.2626 44.0809ZM72.816 60H70.768V62H72.816V60ZM71.681 60.5921L64.289 44.0481L62.463 44.8639L69.855 61.4079L71.681 60.5921ZM62.376 44.456V61H64.376V44.456H62.376ZM63.376 60H60.464V62H63.376V60ZM61.464 61V38.856H59.464V61H61.464ZM60.464 39.856H63.6V37.856H60.464V39.856ZM62.6872 39.2645L70.8792 57.5685L72.7048 56.7515L64.5128 38.4475L62.6872 39.2645ZM72.7048 57.5685L80.8968 39.2645L79.0712 38.4475L70.8792 56.7515L72.7048 57.5685ZM79.984 39.856H83.088V37.856H79.984V39.856ZM101.211 56.04L102.151 55.7002L101.912 55.04H101.211V56.04ZM91.4825 56.04V55.04H90.7805L90.542 55.7002L91.4825 56.04ZM89.6905 61V62H90.3925L90.631 61.3398L89.6905 61ZM86.6185 61L85.6787 60.6583L85.1908 62H86.6185V61ZM94.6825 38.824V37.824H93.9821L93.7427 38.4823L94.6825 38.824ZM98.0425 38.824L98.9827 38.4835L98.7439 37.824H98.0425V38.824ZM106.075 61V62H107.5L107.015 60.6595L106.075 61ZM103.003 61L102.062 61.3398L102.301 62H103.003V61ZM100.379 53.672V54.672H101.799L101.32 53.335L100.379 53.672ZM96.3465 42.408L97.288 42.071L96.3465 39.4408L95.405 42.071L96.3465 42.408ZM92.3145 53.672L91.373 53.335L90.8944 54.672H92.3145V53.672ZM101.211 55.04H91.4825V57.04H101.211V55.04ZM90.542 55.7002L88.75 60.6602L90.631 61.3398L92.423 56.3798L90.542 55.7002ZM89.6905 60H86.6185V62H89.6905V60ZM87.5583 61.3417L95.6223 39.1657L93.7427 38.4823L85.6787 60.6583L87.5583 61.3417ZM94.6825 39.824H98.0425V37.824H94.6825V39.824ZM97.1023 39.1645L105.134 61.3405L107.015 60.6595L98.9827 38.4835L97.1023 39.1645ZM106.075 60H103.003V62H106.075V60ZM103.943 60.6602L102.151 55.7002L100.27 56.3798L102.062 61.3398L103.943 60.6602ZM101.32 53.335L97.288 42.071L95.405 42.745L99.437 54.009L101.32 53.335ZM95.405 42.071L91.373 53.335L93.256 54.009L97.288 42.745L95.405 42.071ZM92.3145 54.672H100.379V52.672H92.3145V54.672ZM127.125 61V62H128.125V61H127.125ZM124.213 61L123.378 61.5505L123.675 62H124.213V61ZM112.501 43.24L113.336 42.6895L111.501 39.9072V43.24H112.501ZM112.501 61V62H113.501V61H112.501ZM109.589 61H108.589V62H109.589V61ZM109.589 38.664V37.664H108.589V38.664H109.589ZM112.501 38.664L113.335 38.1128L113.039 37.664H112.501V38.664ZM124.213 56.392L123.379 56.9432L125.213 59.7198V56.392H124.213ZM124.213 38.664V37.664H123.213V38.664H124.213ZM127.125 38.664H128.125V37.664H127.125V38.664ZM127.125 60H124.213V62H127.125V60ZM125.048 60.4495L113.336 42.6895L111.666 43.7905L123.378 61.5505L125.048 60.4495ZM111.501 43.24V61H113.501V43.24H111.501ZM112.501 60H109.589V62H112.501V60ZM110.589 61V38.664H108.589V61H110.589ZM109.589 39.664H112.501V37.664H109.589V39.664ZM111.667 39.2152L123.379 56.9432L125.047 55.8408L113.335 38.1128L111.667 39.2152ZM125.213 56.392V38.664H123.213V56.392H125.213ZM124.213 39.664H127.125V37.664H124.213V39.664ZM126.125 38.664V61H128.125V38.664H126.125Z" fill="#191825"/>
<path d="M52.064 33.544V67H47.696V33.544H52.064Z" fill="#191825"/>
<path d="M52.064 33.544H53.064V32.544H52.064V33.544ZM52.064 67V68H53.064V67H52.064ZM47.696 67H46.696V68H47.696V67ZM47.696 33.544V32.544H46.696V33.544H47.696ZM51.064 33.544V67H53.064V33.544H51.064ZM52.064 66H47.696V68H52.064V66ZM48.696 67V33.544H46.696V67H48.696ZM47.696 34.544H52.064V32.544H47.696V34.544Z" fill="#191825"/>
<line x1="30" y1="24" x2="70.5031" y2="24" stroke="#191825" stroke-width="4"/>
<line x1="30" y1="75" x2="70.5031" y2="75" stroke="#191825" stroke-width="4"/>
<defs>
<linearGradient id="paint0_linear_343_597" x1="50" y1="0" x2="50" y2="100" gradientUnits="userSpaceOnUse">
<stop stop-color="#4E31AA"/>
<stop offset="0.505208" stop-color="#FFBF00"/>
<stop offset="1" stop-color="#3795BD"/>
</linearGradient>
</defs>
</svg>
